<?xml version="1.0" encoding="UTF-8" standalone="no"?>
<!DOCTYPE svg PUBLIC "-//W3C//DTD SVG 1.1//EN" "http://www.w3.org/Graphics/SVG/1.1/DTD/svg11.dtd">
<!-- Created with Vectornator (http://vectornator.io/) -->
<svg height="100%" stroke-miterlimit="10" style="fill-rule:nonzero;clip-rule:evenodd;stroke-linecap:round;stroke-linejoin:round;" version="1.1" viewBox="0 0 257 86" width="100%" xml:space="preserve" xmlns="http://www.w3.org/2000/svg" xmlns:vectornator="http://vectornator.io" xmlns:xlink="http://www.w3.org/1999/xlink">
<defs/>
<g id="Layer-1" vectornator:layerName="Layer 1">
<g opacity="1">
<g fill="#141414" opacity="1" stroke="none">
<path d="M43.5979 80.0957C36.7639 80.0957 30.5164 78.4467 24.8554 75.1487C19.1944 71.8507 14.7234 67.3627 11.4424 61.6847C8.16138 56.0067 6.52088 49.7677 6.52088 42.9677C6.52088 36.1337 8.16138 29.8947 11.4424 24.2507C14.7234 18.6067 19.1944 14.1442 24.8554 10.8632C30.5164 7.58218 36.7639 5.94168 43.5979 5.94168C48.2219 5.94168 52.5994 6.71518 56.7304 8.26218C60.8614 9.80918 64.5589 11.9767 67.8229 14.7647L60.0199 25.2197C57.8099 23.4177 55.2684 21.9642 52.3954 20.8592C49.5224 19.7542 46.5899 19.2017 43.5979 19.2017C39.4839 19.2017 35.6589 20.2557 32.1229 22.3637C28.5869 24.4717 25.7734 27.3447 23.6824 30.9827C21.5914 34.6207 20.5459 38.6327 20.5459 43.0187C20.5459 47.4047 21.5914 51.4167 23.6824 55.0547C25.7734 58.6927 28.5869 61.5657 32.1229 63.6737C35.6589 65.7817 39.4839 66.8357 43.5979 66.8357C46.6919 66.8357 49.5479 66.3342 52.1659 65.3312C54.7839 64.3282 57.4529 62.7557 60.1729 60.6137L67.8229 71.1707C64.5249 73.9927 60.8189 76.1857 56.7049 77.7497C52.5909 79.3137 48.2219 80.0957 43.5979 80.0957Z"/>
<path d="M109.592 80.0957C102.758 80.0957 96.5104 78.4467 90.8494 75.1487C85.1884 71.8507 80.7174 67.3627 77.4364 61.6847C74.1554 56.0067 72.5149 49.7677 72.5149 42.9677C72.5149 36.1337 74.1554 29.8947 77.4364 24.2507C80.7174 18.6067 85.1884 14.1442 90.8494 10.8632C96.5104 7.58218 102.758 5.94168 109.592 5.94168C116.426 5.94168 122.673 7.58218 128.334 10.8632C133.995 14.1442 138.466 18.6067 141.747 24.2507C145.028 29.8947 146.669 36.1337 146.669 42.9677C146.669 49.7677 145.028 56.0067 141.747 61.6847C138.466 67.3627 133.995 71.8507 128.334 75.1487C122.673 78.4467 116.426 80.0957 109.592 80.0957ZM109.592 66.8357C113.74 66.8357 117.573 65.7817 121.092 63.6737C124.611 61.5657 127.416 58.6927 129.507 55.0547C131.598 51.4167 132.644 47.4047 132.644 43.0187C132.644 38.5987 131.598 34.5697 129.507 30.9317C127.416 27.2937 124.603 24.4292 121.067 22.3382C117.531 20.2472 113.706 19.2017 109.592 19.2017C105.478 19.2017 101.653 20.2557 98.1169 22.3637C94.5809 24.4717 91.7674 27.3447 89.6764 30.9827C87.5854 34.6207 86.5399 38.6327 86.5399 43.0187C86.5399 47.4047 87.5854 51.4167 89.6764 55.0547C91.7674 58.6927 94.5809 61.5657 98.1169 63.6737C101.653 65.7817 105.478 66.8357 109.592 66.8357Z"/>
</g>
<g fill="#141414" opacity="1" stroke="none">
<path d="M167.334 54.8641L159.974 54.8641L142.374 9.90409L151.654 9.90409L163.59 42.7041L163.686 42.7041L175.59 9.90409L184.87 9.90409L167.334 54.8641Z"/>
<path d="M199.366 54.8641L190.694 54.8641L190.694 9.90409L199.366 9.90409L199.366 54.8641Z"/>
<path d="M210.054 54.8641L210.054 9.90409L226.278 9.90409C230.587 9.90409 234.534 10.8908 238.118 12.8641C241.702 14.8374 244.539 17.5414 246.63 20.9761C248.72 24.4108 249.766 28.2188 249.766 32.4001C249.766 36.5814 248.726 40.3841 246.646 43.8081C244.566 47.2321 241.739 49.9308 238.166 51.9041C234.592 53.8774 230.662 54.8641 226.374 54.8641L210.054 54.8641ZM226.662 46.6401C229.328 46.6401 231.755 46.0214 233.942 44.7841C236.128 43.5468 237.846 41.8454 239.094 39.6801C240.342 37.5148 240.966 35.0881 240.966 32.4001C240.966 29.7121 240.336 27.2801 239.078 25.1041C237.819 22.9281 236.091 21.2214 233.894 19.9841C231.696 18.7468 229.254 18.1281 226.566 18.1281L218.726 18.1281L218.726 46.6401L226.662 46.6401Z"/>
</g>
<g fill="#141414" opacity="1" stroke="none">
<path d="M146.588 77.5816L143.396 77.5816L143.396 60.7216L146.672 60.7216L154.664 72.1216L154.664 60.7216L157.856 60.7216L157.856 77.5816L154.832 77.5816L146.588 65.8456L146.588 77.5816Z"/>
<path d="M167.048 77.8456C165.72 77.8456 164.466 77.5876 163.286 77.0716C162.106 76.5556 161.084 75.8056 160.22 74.8216L162.308 72.7096C162.948 73.3976 163.672 73.9216 164.48 74.2816C165.288 74.6416 166.124 74.8216 166.988 74.8216C167.892 74.8216 168.606 74.6376 169.13 74.2696C169.654 73.9016 169.916 73.3936 169.916 72.7456C169.916 72.3136 169.79 71.9536 169.538 71.6656C169.286 71.3776 168.902 71.1236 168.386 70.9036C167.87 70.6836 167.152 70.4456 166.232 70.1896C165.304 69.9336 164.478 69.6256 163.754 69.2656C163.03 68.9056 162.416 68.3936 161.912 67.7296C161.408 67.0656 161.156 66.2256 161.156 65.2096C161.156 64.3296 161.376 63.5276 161.816 62.8036C162.256 62.0796 162.91 61.5056 163.778 61.0816C164.646 60.6576 165.696 60.4456 166.928 60.4456C168.104 60.4456 169.194 60.6436 170.198 61.0396C171.202 61.4356 172.096 61.9976 172.88 62.7256L171.02 64.9576C170.524 64.5096 169.92 64.1396 169.208 63.8476C168.496 63.5556 167.78 63.4096 167.06 63.4096C166.548 63.4096 166.09 63.4876 165.686 63.6436C165.282 63.7996 164.966 64.0216 164.738 64.3096C164.51 64.5976 164.396 64.9336 164.396 65.3176C164.396 65.6936 164.52 66.0056 164.768 66.2536C165.016 66.5016 165.344 66.7076 165.752 66.8716C166.16 67.0356 166.756 67.2376 167.54 67.4776L167.804 67.5616C168.972 67.9376 169.938 68.3316 170.702 68.7436C171.466 69.1556 172.074 69.6796 172.526 70.3156C172.978 70.9516 173.204 71.7376 173.204 72.6736C173.204 73.7216 172.942 74.6356 172.418 75.4156C171.894 76.1956 171.166 76.7956 170.234 77.2156C169.302 77.6356 168.24 77.8456 167.048 77.8456Z"/>
<path d="M183.776 77.8696C182.168 77.8696 180.698 77.4816 179.366 76.7056C178.034 75.9296 176.982 74.8736 176.21 73.5376C175.438 72.2016 175.052 70.7336 175.052 69.1336C175.052 67.5256 175.438 66.0576 176.21 64.7296C176.982 63.4016 178.034 62.3516 179.366 61.5796C180.698 60.8076 182.168 60.4216 183.776 60.4216C184.864 60.4216 185.894 60.6036 186.866 60.9676C187.838 61.3316 188.708 61.8416 189.476 62.4976L187.64 64.9576C187.12 64.5336 186.522 64.1916 185.846 63.9316C185.17 63.6716 184.48 63.5416 183.776 63.5416C182.808 63.5416 181.908 63.7896 181.076 64.2856C180.244 64.7816 179.582 65.4576 179.09 66.3136C178.598 67.1696 178.352 68.1136 178.352 69.1456C178.352 70.1776 178.598 71.1216 179.09 71.9776C179.582 72.8336 180.244 73.5096 181.076 74.0056C181.908 74.5016 182.808 74.7496 183.776 74.7496C184.504 74.7496 185.176 74.6316 185.792 74.3956C186.408 74.1596 187.036 73.7896 187.676 73.2856L189.476 75.7696C188.7 76.4336 187.828 76.9496 186.86 77.3176C185.892 77.6856 184.864 77.8696 183.776 77.8696Z"/>
<path d="M195.392 77.5816L192.14 77.5816L192.14 60.7216L195.392 60.7216L195.392 77.5816Z"/>
<path d="M207.14 77.8696C205.532 77.8696 204.062 77.4816 202.73 76.7056C201.398 75.9296 200.346 74.8736 199.574 73.5376C198.802 72.2016 198.416 70.7336 198.416 69.1336C198.416 67.5256 198.802 66.0576 199.574 64.7296C200.346 63.4016 201.398 62.3516 202.73 61.5796C204.062 60.8076 205.532 60.4216 207.14 60.4216C208.748 60.4216 210.218 60.8076 211.55 61.5796C212.882 62.3516 213.934 63.4016 214.706 64.7296C215.478 66.0576 215.864 67.5256 215.864 69.1336C215.864 70.7336 215.478 72.2016 214.706 73.5376C213.934 74.8736 212.882 75.9296 211.55 76.7056C210.218 77.4816 208.748 77.8696 207.14 77.8696ZM207.14 74.7496C208.116 74.7496 209.018 74.5016 209.846 74.0056C210.674 73.5096 211.334 72.8336 211.826 71.9776C212.318 71.1216 212.564 70.1776 212.564 69.1456C212.564 68.1056 212.318 67.1576 211.826 66.3016C211.334 65.4456 210.672 64.7716 209.84 64.2796C209.008 63.7876 208.108 63.5416 207.14 63.5416C206.172 63.5416 205.272 63.7896 204.44 64.2856C203.608 64.7816 202.946 65.4576 202.454 66.3136C201.962 67.1696 201.716 68.1136 201.716 69.1456C201.716 70.1776 201.962 71.1216 202.454 71.9776C202.946 72.8336 203.608 73.5096 204.44 74.0056C205.272 74.5016 206.172 74.7496 207.14 74.7496Z"/>
<path d="M225.584 77.9176C224.104 77.9176 222.83 77.6076 221.762 76.9876C220.694 76.3676 219.882 75.5116 219.326 74.4196C218.77 73.3276 218.492 72.0856 218.492 70.6936L218.492 60.7216L221.744 60.7216L221.744 70.3096C221.744 71.2056 221.892 71.9996 222.188 72.6916C222.484 73.3836 222.922 73.9216 223.502 74.3056C224.082 74.6896 224.776 74.8816 225.584 74.8816C226.4 74.8816 227.098 74.6896 227.678 74.3056C228.258 73.9216 228.698 73.3836 228.998 72.6916C229.298 71.9996 229.448 71.2056 229.448 70.3096L229.448 60.7216L232.7 60.7216L232.7 70.6936C232.7 72.0856 232.42 73.3276 231.86 74.4196C231.3 75.5116 230.484 76.3676 229.412 76.9876C228.34 77.6076 227.064 77.9176 225.584 77.9176Z"/>
<path d="M241.496 77.8456C240.168 77.8456 238.914 77.5876 237.734 77.0716C236.554 76.5556 235.532 75.8056 234.668 74.8216L236.756 72.7096C237.396 73.3976 238.12 73.9216 238.928 74.2816C239.736 74.6416 240.572 74.8216 241.436 74.8216C242.34 74.8216 243.054 74.6376 243.578 74.2696C244.102 73.9016 244.364 73.3936 244.364 72.7456C244.364 72.3136 244.238 71.9536 243.986 71.6656C243.734 71.3776 243.35 71.1236 242.834 70.9036C242.318 70.6836 241.6 70.4456 240.68 70.1896C239.752 69.9336 238.926 69.6256 238.202 69.2656C237.478 68.9056 236.864 68.3936 236.36 67.7296C235.856 67.0656 235.604 66.2256 235.604 65.2096C235.604 64.3296 235.824 63.5276 236.264 62.8036C236.704 62.0796 237.358 61.5056 238.226 61.0816C239.094 60.6576 240.144 60.4456 241.376 60.4456C242.552 60.4456 243.642 60.6436 244.646 61.0396C245.65 61.4356 246.544 61.9976 247.328 62.7256L245.468 64.9576C244.972 64.5096 244.368 64.1396 243.656 63.8476C242.944 63.5556 242.228 63.4096 241.508 63.4096C240.996 63.4096 240.538 63.4876 240.134 63.6436C239.73 63.7996 239.414 64.0216 239.186 64.3096C238.958 64.5976 238.844 64.9336 238.844 65.3176C238.844 65.6936 238.968 66.0056 239.216 66.2536C239.464 66.5016 239.792 66.7076 240.2 66.8716C240.608 67.0356 241.204 67.2376 241.988 67.4776L242.252 67.5616C243.42 67.9376 244.386 68.3316 245.15 68.7436C245.914 69.1556 246.522 69.6796 246.974 70.3156C247.426 70.9516 247.652 71.7376 247.652 72.6736C247.652 73.7216 247.39 74.6356 246.866 75.4156C246.342 76.1956 245.614 76.7956 244.682 77.2156C243.75 77.6356 242.688 77.8456 241.496 77.8456Z"/>
</g>
</g>
</g>
</svg>
