<?xml version="1.0" encoding="UTF-8" standalone="no"?>
<!DOCTYPE svg PUBLIC "-//W3C//DTD SVG 1.1//EN" "http://www.w3.org/Graphics/SVG/1.1/DTD/svg11.dtd">
<!-- Created with Vectornator (http://vectornator.io/) -->
<svg height="100%" stroke-miterlimit="10" style="fill-rule:nonzero;clip-rule:evenodd;stroke-linecap:round;stroke-linejoin:round;" version="1.1" viewBox="0 0 295 125" width="100%" xml:space="preserve" xmlns="http://www.w3.org/2000/svg" xmlns:vectornator="http://vectornator.io" xmlns:xlink="http://www.w3.org/1999/xlink">
<defs/>
<g id="Layer-1" vectornator:layerName="Layer 1">
<g opacity="1">
<g fill="#141414" opacity="1" stroke="none">
<path d="M61.8093 99.0957C54.9753 99.0957 48.7278 97.4467 43.0668 94.1487C37.4058 90.8507 32.9348 86.3627 29.6538 80.6847C26.3728 75.0067 24.7323 68.7677 24.7323 61.9677C24.7323 55.1337 26.3728 48.8947 29.6538 43.2507C32.9348 37.6067 37.4058 33.1442 43.0668 29.8632C48.7278 26.5822 54.9753 24.9417 61.8093 24.9417C66.4333 24.9417 70.8108 25.7152 74.9418 27.2622C79.0728 28.8092 82.7703 30.9767 86.0343 33.7647L78.2313 44.2197C76.0213 42.4177 73.4798 40.9642 70.6068 39.8592C67.7338 38.7542 64.8013 38.2017 61.8093 38.2017C57.6953 38.2017 53.8703 39.2557 50.3343 41.3637C46.7983 43.4717 43.9848 46.3447 41.8938 49.9827C39.8028 53.6207 38.7573 57.6327 38.7573 62.0187C38.7573 66.4047 39.8028 70.4167 41.8938 74.0547C43.9848 77.6927 46.7983 80.5657 50.3343 82.6737C53.8703 84.7817 57.6953 85.8357 61.8093 85.8357C64.9033 85.8357 67.7593 85.3342 70.3773 84.3312C72.9953 83.3282 75.6643 81.7557 78.3843 79.6137L86.0343 90.1707C82.7363 92.9927 79.0303 95.1857 74.9163 96.7497C70.8023 98.3137 66.4333 99.0957 61.8093 99.0957Z"/>
<path d="M127.803 99.0957C120.969 99.0957 114.722 97.4467 109.061 94.1487C103.4 90.8507 98.9288 86.3627 95.6478 80.6847C92.3668 75.0067 90.7263 68.7677 90.7263 61.9677C90.7263 55.1337 92.3668 48.8947 95.6478 43.2507C98.9288 37.6067 103.4 33.1442 109.061 29.8632C114.722 26.5822 120.969 24.9417 127.803 24.9417C134.637 24.9417 140.885 26.5822 146.546 29.8632C152.207 33.1442 156.678 37.6067 159.959 43.2507C163.24 48.8947 164.88 55.1337 164.88 61.9677C164.88 68.7677 163.24 75.0067 159.959 80.6847C156.678 86.3627 152.207 90.8507 146.546 94.1487C140.885 97.4467 134.637 99.0957 127.803 99.0957ZM127.803 85.8357C131.951 85.8357 135.785 84.7817 139.304 82.6737C142.823 80.5657 145.628 77.6927 147.719 74.0547C149.81 70.4167 150.855 66.4047 150.855 62.0187C150.855 57.5987 149.81 53.5697 147.719 49.9317C145.628 46.2937 142.814 43.4292 139.278 41.3382C135.742 39.2472 131.917 38.2017 127.803 38.2017C123.689 38.2017 119.864 39.2557 116.328 41.3637C112.792 43.4717 109.979 46.3447 107.888 49.9827C105.797 53.6207 104.751 57.6327 104.751 62.0187C104.751 66.4047 105.797 70.4167 107.888 74.0547C109.979 77.6927 112.792 80.5657 116.328 82.6737C119.864 84.7817 123.689 85.8357 127.803 85.8357Z"/>
</g>
<g fill="#141414" opacity="1" stroke="none">
<path d="M187.438 73.8641L180.078 73.8641L162.478 28.9041L171.758 28.9041L183.694 61.7041L183.79 61.7041L195.694 28.9041L204.974 28.9041L187.438 73.8641Z"/>
<path d="M219.47 73.8641L210.798 73.8641L210.798 28.9041L219.47 28.9041L219.47 73.8641Z"/>
<path d="M230.158 73.8641L230.158 28.9041L246.382 28.9041C250.691 28.9041 254.638 29.8908 258.222 31.8641C261.806 33.8374 264.643 36.5414 266.734 39.9761C268.825 43.4108 269.87 47.2188 269.87 51.4001C269.87 55.5814 268.83 59.3841 266.75 62.8081C264.67 66.2321 261.843 68.9308 258.27 70.9041C254.697 72.8774 250.766 73.8641 246.478 73.8641L230.158 73.8641ZM246.766 65.6401C249.433 65.6401 251.859 65.0214 254.046 63.7841C256.233 62.5468 257.95 60.8454 259.198 58.6801C260.446 56.5148 261.07 54.0881 261.07 51.4001C261.07 48.7121 260.441 46.2801 259.182 44.1041C257.923 41.9281 256.195 40.2214 253.998 38.9841C251.801 37.7468 249.358 37.1281 246.67 37.1281L238.83 37.1281L238.83 65.6401L246.766 65.6401Z"/>
</g>
<g fill="#141414" opacity="1" stroke="none">
<path d="M166.657 96.5816L163.465 96.5816L163.465 79.7216L166.741 79.7216L174.733 91.1216L174.733 79.7216L177.925 79.7216L177.925 96.5816L174.901 96.5816L166.657 84.8456L166.657 96.5816Z"/>
<path d="M187.117 96.8456C185.789 96.8456 184.535 96.5876 183.355 96.0716C182.175 95.5556 181.153 94.8056 180.289 93.8216L182.377 91.7096C183.017 92.3976 183.741 92.9216 184.549 93.2816C185.357 93.6416 186.193 93.8216 187.057 93.8216C187.961 93.8216 188.675 93.6376 189.199 93.2696C189.723 92.9016 189.985 92.3936 189.985 91.7456C189.985 91.3136 189.859 90.9536 189.607 90.6656C189.355 90.3776 188.971 90.1236 188.455 89.9036C187.939 89.6836 187.221 89.4456 186.301 89.1896C185.373 88.9336 184.547 88.6256 183.823 88.2656C183.099 87.9056 182.485 87.3936 181.981 86.7296C181.477 86.0656 181.225 85.2256 181.225 84.2096C181.225 83.3296 181.445 82.5276 181.885 81.8036C182.325 81.0796 182.979 80.5056 183.847 80.0816C184.715 79.6576 185.765 79.4456 186.997 79.4456C188.173 79.4456 189.263 79.6436 190.267 80.0396C191.271 80.4356 192.165 80.9976 192.949 81.7256L191.089 83.9576C190.593 83.5096 189.989 83.1396 189.277 82.8476C188.565 82.5556 187.849 82.4096 187.129 82.4096C186.617 82.4096 186.159 82.4876 185.755 82.6436C185.351 82.7996 185.035 83.0216 184.807 83.3096C184.579 83.5976 184.465 83.9336 184.465 84.3176C184.465 84.6936 184.589 85.0056 184.837 85.2536C185.085 85.5016 185.413 85.7076 185.821 85.8716C186.229 86.0356 186.825 86.2376 187.609 86.4776L187.873 86.5616C189.041 86.9376 190.007 87.3316 190.771 87.7436C191.535 88.1556 192.143 88.6796 192.595 89.3156C193.047 89.9516 193.273 90.7376 193.273 91.6736C193.273 92.7216 193.011 93.6356 192.487 94.4156C191.963 95.1956 191.235 95.7956 190.303 96.2156C189.371 96.6356 188.309 96.8456 187.117 96.8456Z"/>
<path d="M203.845 96.8696C202.237 96.8696 200.767 96.4816 199.435 95.7056C198.103 94.9296 197.051 93.8736 196.279 92.5376C195.507 91.2016 195.121 89.7336 195.121 88.1336C195.121 86.5256 195.507 85.0576 196.279 83.7296C197.051 82.4016 198.103 81.3516 199.435 80.5796C200.767 79.8076 202.237 79.4216 203.845 79.4216C204.933 79.4216 205.963 79.6036 206.935 79.9676C207.907 80.3316 208.777 80.8416 209.545 81.4976L207.709 83.9576C207.189 83.5336 206.591 83.1916 205.915 82.9316C205.239 82.6716 204.549 82.5416 203.845 82.5416C202.877 82.5416 201.977 82.7896 201.145 83.2856C200.313 83.7816 199.651 84.4576 199.159 85.3136C198.667 86.1696 198.421 87.1136 198.421 88.1456C198.421 89.1776 198.667 90.1216 199.159 90.9776C199.651 91.8336 200.313 92.5096 201.145 93.0056C201.977 93.5016 202.877 93.7496 203.845 93.7496C204.573 93.7496 205.245 93.6316 205.861 93.3956C206.477 93.1596 207.105 92.7896 207.745 92.2856L209.545 94.7696C208.769 95.4336 207.897 95.9496 206.929 96.3176C205.961 96.6856 204.933 96.8696 203.845 96.8696Z"/>
<path d="M215.461 96.5816L212.209 96.5816L212.209 79.7216L215.461 79.7216L215.461 96.5816Z"/>
<path d="M227.209 96.8696C225.601 96.8696 224.131 96.4816 222.799 95.7056C221.467 94.9296 220.415 93.8736 219.643 92.5376C218.871 91.2016 218.485 89.7336 218.485 88.1336C218.485 86.5256 218.871 85.0576 219.643 83.7296C220.415 82.4016 221.467 81.3516 222.799 80.5796C224.131 79.8076 225.601 79.4216 227.209 79.4216C228.817 79.4216 230.287 79.8076 231.619 80.5796C232.951 81.3516 234.003 82.4016 234.775 83.7296C235.547 85.0576 235.933 86.5256 235.933 88.1336C235.933 89.7336 235.547 91.2016 234.775 92.5376C234.003 93.8736 232.951 94.9296 231.619 95.7056C230.287 96.4816 228.817 96.8696 227.209 96.8696ZM227.209 93.7496C228.185 93.7496 229.087 93.5016 229.915 93.0056C230.743 92.5096 231.403 91.8336 231.895 90.9776C232.387 90.1216 232.633 89.1776 232.633 88.1456C232.633 87.1056 232.387 86.1576 231.895 85.3016C231.403 84.4456 230.741 83.7716 229.909 83.2796C229.077 82.7876 228.177 82.5416 227.209 82.5416C226.241 82.5416 225.341 82.7896 224.509 83.2856C223.677 83.7816 223.015 84.4576 222.523 85.3136C222.031 86.1696 221.785 87.1136 221.785 88.1456C221.785 89.1776 222.031 90.1216 222.523 90.9776C223.015 91.8336 223.677 92.5096 224.509 93.0056C225.341 93.5016 226.241 93.7496 227.209 93.7496Z"/>
<path d="M245.653 96.9176C244.173 96.9176 242.899 96.6076 241.831 95.9876C240.763 95.3676 239.951 94.5116 239.395 93.4196C238.839 92.3276 238.561 91.0856 238.561 89.6936L238.561 79.7216L241.813 79.7216L241.813 89.3096C241.813 90.2056 241.961 90.9996 242.257 91.6916C242.553 92.3836 242.991 92.9216 243.571 93.3056C244.151 93.6896 244.845 93.8816 245.653 93.8816C246.469 93.8816 247.167 93.6896 247.747 93.3056C248.327 92.9216 248.767 92.3836 249.067 91.6916C249.367 90.9996 249.517 90.2056 249.517 89.3096L249.517 79.7216L252.769 79.7216L252.769 89.6936C252.769 91.0856 252.489 92.3276 251.929 93.4196C251.369 94.5116 250.553 95.3676 249.481 95.9876C248.409 96.6076 247.133 96.9176 245.653 96.9176Z"/>
<path d="M261.565 96.8456C260.237 96.8456 258.983 96.5876 257.803 96.0716C256.623 95.5556 255.601 94.8056 254.737 93.8216L256.825 91.7096C257.465 92.3976 258.189 92.9216 258.997 93.2816C259.805 93.6416 260.641 93.8216 261.505 93.8216C262.409 93.8216 263.123 93.6376 263.647 93.2696C264.171 92.9016 264.433 92.3936 264.433 91.7456C264.433 91.3136 264.307 90.9536 264.055 90.6656C263.803 90.3776 263.419 90.1236 262.903 89.9036C262.387 89.6836 261.669 89.4456 260.749 89.1896C259.821 88.9336 258.995 88.6256 258.271 88.2656C257.547 87.9056 256.933 87.3936 256.429 86.7296C255.925 86.0656 255.673 85.2256 255.673 84.2096C255.673 83.3296 255.893 82.5276 256.333 81.8036C256.773 81.0796 257.427 80.5056 258.295 80.0816C259.163 79.6576 260.213 79.4456 261.445 79.4456C262.621 79.4456 263.711 79.6436 264.715 80.0396C265.719 80.4356 266.613 80.9976 267.397 81.7256L265.537 83.9576C265.041 83.5096 264.437 83.1396 263.725 82.8476C263.013 82.5556 262.297 82.4096 261.577 82.4096C261.065 82.4096 260.607 82.4876 260.203 82.6436C259.799 82.7996 259.483 83.0216 259.255 83.3096C259.027 83.5976 258.913 83.9336 258.913 84.3176C258.913 84.6936 259.037 85.0056 259.285 85.2536C259.533 85.5016 259.861 85.7076 260.269 85.8716C260.677 86.0356 261.273 86.2376 262.057 86.4776L262.321 86.5616C263.489 86.9376 264.455 87.3316 265.219 87.7436C265.983 88.1556 266.591 88.6796 267.043 89.3156C267.495 89.9516 267.721 90.7376 267.721 91.6736C267.721 92.7216 267.459 93.6356 266.935 94.4156C266.411 95.1956 265.683 95.7956 264.751 96.2156C263.819 96.6356 262.757 96.8456 261.565 96.8456Z"/>
</g>
</g>
</g>
</svg>
