<?xml version="1.0" encoding="UTF-8" standalone="no"?>
<!DOCTYPE svg PUBLIC "-//W3C//DTD SVG 1.1//EN" "http://www.w3.org/Graphics/SVG/1.1/DTD/svg11.dtd">
<!-- Created with Vectornator (http://vectornator.io/) -->
<svg height="100%" stroke-miterlimit="10" style="fill-rule:nonzero;clip-rule:evenodd;stroke-linecap:round;stroke-linejoin:round;" version="1.1" viewBox="0 0 512 512" width="100%" xml:space="preserve" xmlns="http://www.w3.org/2000/svg" xmlns:vectornator="http://vectornator.io" xmlns:xlink="http://www.w3.org/1999/xlink">
<defs/>
<g id="Layer-1" vectornator:layerName="Layer 1">
<path d="M283.831 485.53C243.631 485.53 206.881 475.83 173.581 456.43C140.281 437.03 113.981 410.63 94.6811 377.23C75.3811 343.83 65.7311 307.13 65.7311 267.13C65.7311 226.93 75.3811 190.23 94.6811 157.03C113.981 123.83 140.281 97.5804 173.581 78.2804C206.881 58.9804 243.631 49.3304 283.831 49.3304C311.031 49.3304 336.781 53.8804 361.081 62.9804C385.381 72.0804 407.131 84.8304 426.331 101.23L380.431 162.73C367.431 152.13 352.481 143.58 335.581 137.08C318.681 130.58 301.431 127.33 283.831 127.33C259.631 127.33 237.131 133.53 216.331 145.93C195.531 158.33 178.981 175.23 166.681 196.63C154.381 218.03 148.231 241.63 148.231 267.43C148.231 293.23 154.381 316.83 166.681 338.23C178.981 359.63 195.531 376.53 216.331 388.93C237.131 401.33 259.631 407.53 283.831 407.53C302.031 407.53 318.831 404.58 334.231 398.68C349.631 392.78 365.331 383.53 381.331 370.93L426.331 433.03C406.931 449.63 385.131 462.53 360.931 471.73C336.731 480.93 311.031 485.53 283.831 485.53Z" fill="#141414" opacity="1" stroke="none"/>
</g>
</svg>
